<svg xmlns="http://www.w3.org/2000/svg" xmlns:xlink="http://www.w3.org/1999/xlink" width="1569" zoomAndPan="magnify" viewBox="0 0 1176.75 983.999988" height="1312" preserveAspectRatio="xMidYMid meet" version="1.0"><path fill="#ffffff" d="M 404.289062 452.304688 C 404.574219 451.910156 404.722656 451.4375 404.71875 450.949219 C 404.714844 450.464844 404.554688 449.992188 404.265625 449.601562 C 403.972656 449.210938 403.566406 448.925781 403.101562 448.78125 C 402.636719 448.636719 402.140625 448.644531 401.679688 448.804688 C 393.628906 451.210938 374.542969 470.699219 370.277344 482.011719 C 366.011719 493.324219 376.558594 518.238281 382.714844 528.425781 C 384.007812 530.558594 387.066406 528.425781 386.324219 526.371094 C 383.0625 516.671875 374.242188 493.882812 376.542969 484.855469 C 380.300781 470.984375 397.523438 461.46875 404.289062 452.304688 Z M 404.289062 452.304688 " fill-opacity="1" fill-rule="nonzero"/><path fill="#ffffff" d="M 444.710938 470.140625 C 443.039062 482.535156 442.496094 513.328125 449.171875 522.488281 C 449.34375 522.703125 449.554688 522.882812 449.792969 523.019531 C 450.035156 523.15625 450.296875 523.242188 450.570312 523.273438 C 450.84375 523.308594 451.121094 523.285156 451.386719 523.210938 C 451.652344 523.136719 451.898438 523.011719 452.117188 522.84375 C 455.816406 519.972656 447.304688 501.464844 451.550781 470.554688 C 453.121094 460.4375 446.019531 460.394531 444.710938 470.140625 Z M 444.710938 470.140625 " fill-opacity="1" fill-rule="nonzero"/><path fill="#ffffff" d="M 545.707031 497.3125 C 565.851562 488.308594 587.214844 482.339844 609.105469 479.597656 C 612.328125 479.074219 611.082031 474.570312 608.179688 474.285156 C 599.21875 474.730469 590.339844 476.191406 581.707031 478.636719 C 575.589844 471.894531 570.015625 464.679688 565.046875 457.054688 C 562.464844 453.027344 558.722656 455.644531 561.785156 461.765625 C 565.71875 468.605469 570.75 474.753906 576.675781 479.960938 C 568.0625 482.367188 550.59375 488.011719 543.992188 493.605469 C 542.125 495.050781 543.417969 498.328125 545.707031 497.3125 Z M 545.707031 497.3125 " fill-opacity="1" fill-rule="nonzero"/><path fill="#ffffff" d="M 554.355469 398.609375 C 591.109375 408.109375 617.394531 435.074219 637.683594 465.507812 C 648.386719 481.609375 656.445312 502.8125 636.070312 515.945312 C 617.351562 528.023438 580.765625 537.164062 557.652344 539.214844 C 555.566406 539.214844 554.519531 542.601562 556.972656 543.238281 C 573.882812 547.265625 628.304688 530.5625 643.355469 518.117188 C 659.902344 504.472656 655.714844 481.890625 645.570312 465.773438 C 625.445312 433.570312 593.828125 402.53125 555.199219 395.089844 C 554.734375 394.976562 554.242188 395.054688 553.832031 395.304688 C 553.421875 395.558594 553.128906 395.960938 553.019531 396.425781 C 552.90625 396.894531 552.984375 397.386719 553.234375 397.792969 C 553.488281 398.203125 553.890625 398.496094 554.355469 398.609375 Z M 554.355469 398.609375 " fill-opacity="1" fill-rule="nonzero"/><path fill="#ffffff" d="M 528.636719 407.867188 C 522.085938 423.367188 491.238281 428.636719 483.953125 415.558594 C 482.460938 412.644531 481.539062 409.472656 481.238281 406.214844 C 480.792969 403.773438 480.167969 402.316406 477.433594 402.796875 C 471.960938 403.757812 450.746094 415.636719 446.359375 422.277344 C 445.46875 423.566406 446.882812 425.738281 448.445312 425.179688 C 451.585938 424.046875 465.894531 414.347656 477.46875 409.535156 C 477.734375 413.003906 478.722656 416.375 480.371094 419.4375 C 487.375 430.226562 509.59375 432.15625 523.601562 422.375 C 539.546875 411.25 530.808594 402.71875 528.636719 407.867188 Z M 528.636719 407.867188 " fill-opacity="1" fill-rule="nonzero"/><path fill="#ffffff" d="M 494.660156 523.917969 C 509.757812 522.84375 512.855469 513.578125 507.863281 513.328125 C 500.820312 513.011719 499.167969 521.382812 480.492188 515.503906 C 474.894531 513.691406 475.824219 525.261719 494.660156 523.917969 Z M 494.660156 523.917969 " fill-opacity="1" fill-rule="nonzero"/><path fill="#ffffff" d="M 501.425781 507.976562 C 500.257812 503.511719 497.816406 485.515625 487.699219 486.484375 C 477.585938 487.453125 481.539062 502.34375 483.109375 510.917969 C 489.347656 512.203125 498.851562 512.644531 501.425781 507.976562 Z M 501.425781 507.976562 " fill-opacity="1" fill-rule="nonzero"/><path fill="#ffffff" d="M 509.960938 532.976562 C 512.539062 531.898438 511.808594 527.457031 508.792969 527.945312 C 494.417969 530.160156 495.75 532.699219 480.933594 527.667969 C 479.128906 527.066406 476.910156 529.113281 478.277344 530.921875 C 485.039062 538.648438 501.441406 536.519531 509.960938 532.976562 Z M 509.960938 532.976562 " fill-opacity="1" fill-rule="nonzero"/><path fill="#ffffff" d="M 491.761719 557.527344 C 502.457031 561.066406 530.089844 557.527344 532.378906 544.851562 C 533.871094 536.800781 534.433594 514.941406 519.179688 503.433594 C 503.925781 491.921875 502.511719 499.074219 504.488281 500.8125 C 508.164062 503.585938 511.992188 506.152344 515.953125 508.496094 C 527.066406 516.546875 529.078125 536.113281 526.382812 544.722656 C 521.386719 548.539062 515.613281 551.207031 509.46875 552.535156 C 503.328125 553.863281 496.964844 553.820312 490.839844 552.414062 C 488.542969 551.691406 489.347656 556.734375 491.761719 557.527344 Z M 491.761719 557.527344 " fill-opacity="1" fill-rule="nonzero"/><path fill="#ffffff" d="M 510.964844 541.351562 C 507.613281 537.359375 498.164062 548.570312 482.789062 540.503906 C 482.3125 540.222656 481.746094 540.136719 481.203125 540.257812 C 480.664062 540.382812 480.191406 540.703125 479.878906 541.160156 C 479.566406 541.617188 479.441406 542.179688 479.523438 542.726562 C 479.605469 543.273438 479.894531 543.769531 480.328125 544.113281 C 494.539062 554.714844 515.648438 546.921875 510.964844 541.351562 Z M 510.964844 541.351562 " fill-opacity="1" fill-rule="nonzero"/><path fill="#ffffff" d="M 401.433594 529.472656 C 407.914062 531.210938 421.238281 531.566406 424.824219 526.613281 C 425.183594 525.996094 425.285156 525.261719 425.101562 524.570312 C 424.917969 523.878906 424.46875 523.285156 423.851562 522.925781 C 420.46875 520.933594 413.339844 528.445312 396.523438 522.589844 C 393.628906 521.285156 390.363281 526.5 401.433594 529.472656 Z M 401.433594 529.472656 " fill-opacity="1" fill-rule="nonzero"/><path fill="#ffffff" d="M 397.851562 507.445312 C 400.644531 508.644531 403.667969 509.207031 406.703125 509.089844 C 409.742188 508.96875 412.710938 508.171875 415.402344 506.757812 C 414.03125 501.523438 413.066406 485.542969 403.328125 485.824219 C 393.585938 486.109375 396.761719 500.609375 397.851562 507.445312 Z M 397.851562 507.445312 " fill-opacity="1" fill-rule="nonzero"/><path fill="#ffffff" d="M 393.582031 515.707031 C 405.710938 523.304688 426.589844 517.835938 422.042969 512.488281 C 419.261719 509.183594 415.160156 515.953125 395.636719 511.117188 C 395.046875 510.945312 394.417969 510.996094 393.863281 511.253906 C 393.308594 511.511719 392.863281 511.960938 392.613281 512.519531 C 392.363281 513.078125 392.324219 513.707031 392.503906 514.292969 C 392.679688 514.878906 393.066406 515.378906 393.582031 515.707031 Z M 393.582031 515.707031 " fill-opacity="1" fill-rule="nonzero"/><path fill="#ffffff" d="M 510.480469 346.796875 C 512.886719 345.050781 508.917969 336.207031 505.933594 338.300781 C 501.992188 340.882812 507.027344 349.28125 510.480469 346.796875 Z M 510.480469 346.796875 " fill-opacity="1" fill-rule="nonzero"/><path fill="#ffffff" d="M 544.738281 386.128906 C 544.542969 379.175781 543.347656 372.285156 541.195312 365.671875 C 540.550781 364.023438 537.488281 364.023438 537.585938 365.996094 C 537.585938 374.613281 549.660156 399.167969 516.128906 401.296875 C 509.902344 401.117188 503.6875 400.597656 497.519531 399.742188 C 494.902344 399.984375 490.898438 405.503906 506.898438 406.964844 C 521.875 408.347656 545.070312 405.285156 544.738281 386.128906 Z M 544.738281 386.128906 " fill-opacity="1" fill-rule="nonzero"/><path fill="#ffffff" d="M 520.261719 385.519531 C 521.835938 382.984375 524.179688 381.011719 526.945312 379.890625 C 527.394531 379.699219 527.765625 379.363281 527.992188 378.929688 C 528.21875 378.5 528.289062 378.003906 528.1875 377.523438 C 528.085938 377.046875 527.824219 376.621094 527.441406 376.316406 C 527.0625 376.015625 526.585938 375.855469 526.097656 375.863281 C 523.972656 376.140625 521.984375 377.0625 520.394531 378.5 C 518.804688 379.9375 517.691406 381.828125 517.203125 383.914062 C 517.042969 385.90625 519.285156 387.074219 520.261719 385.519531 Z M 520.261719 385.519531 " fill-opacity="1" fill-rule="nonzero"/><path fill="#ffffff" d="M 531.976562 337.171875 C 535.105469 335.824219 531.574219 327.59375 528.476562 329.121094 C 525.378906 330.648438 529.59375 338.210938 531.976562 337.171875 Z M 531.976562 337.171875 " fill-opacity="1" fill-rule="nonzero"/><path fill="#ffffff" d="M 430.136719 357.507812 C 436.902344 361.128906 444.40625 363.167969 452.074219 363.46875 C 459.746094 363.769531 467.382812 362.320312 474.414062 359.238281 C 480.429688 371.3125 484.4375 375.742188 497.601562 378.359375 C 517.238281 382.386719 517.28125 357.902344 525.777344 352.597656 C 529.082031 353.988281 531.886719 356.34375 533.828125 359.359375 C 531.683594 361.363281 529.25 363.03125 526.609375 364.3125 C 522.824219 366.242188 529.097656 370.929688 536.589844 363.023438 C 537.597656 362.1875 538.257812 361.007812 538.441406 359.710938 C 538.628906 358.417969 538.328125 357.097656 537.59375 356.015625 C 552.890625 358.226562 548.101562 328.480469 545.644531 320.757812 C 541.621094 308.121094 535.019531 308.921875 524.585938 311.574219 C 511.101562 314.980469 498.285156 320.644531 486.683594 328.320312 C 478.632812 333.515625 467.523438 339.628906 470.582031 350.382812 C 457.175781 355.617188 446.429688 353.84375 432.675781 350.863281 C 431.882812 350.8125 431.09375 351.019531 430.425781 351.449219 C 429.757812 351.875 429.246094 352.507812 428.960938 353.25 C 428.679688 353.992188 428.640625 354.804688 428.851562 355.570312 C 429.0625 356.335938 429.511719 357.015625 430.136719 357.507812 Z M 535.800781 317.253906 C 541.21875 322.765625 546.222656 353.84375 537.972656 349.09375 C 530.929688 345.070312 523.238281 343.335938 518.117188 350.21875 C 511.3125 359.359375 513.246094 374.011719 496.863281 369.820312 C 484.785156 366.683594 480.199219 356.539062 477.703125 345.070312 C 494.421875 331.066406 514.421875 321.542969 535.832031 317.390625 Z M 535.800781 317.253906 " fill-opacity="1" fill-rule="nonzero"/><path fill="#ffffff" d="M 578.273438 383.914062 C 604.65625 369.734375 639.335938 350.300781 663.8125 338.308594 C 666.917969 336.78125 663.8125 332.550781 660.910156 333.496094 C 641.832031 339.777344 593.890625 368.519531 576.375 380.792969 C 574.648438 381.984375 576.382812 384.925781 578.273438 383.914062 Z M 578.273438 383.914062 " fill-opacity="1" fill-rule="nonzero"/><path fill="#ffffff" d="M 587.730469 363.042969 C 588.230469 363.066406 588.726562 362.902344 589.117188 362.582031 C 589.503906 362.265625 589.765625 361.8125 589.84375 361.316406 C 589.921875 360.820312 589.816406 360.3125 589.546875 359.886719 C 589.273438 359.464844 588.855469 359.152344 588.371094 359.019531 C 583.503906 357.652344 568.246094 350.96875 574.96875 344.578125 C 589.460938 330.613281 634.90625 330.089844 653.304688 329.609375 C 654.0625 329.59375 654.789062 329.285156 655.328125 328.753906 C 655.867188 328.21875 656.183594 327.5 656.207031 326.742188 C 656.234375 325.984375 655.96875 325.242188 655.464844 324.675781 C 654.960938 324.109375 654.261719 323.753906 653.503906 323.6875 C 551.296875 323.128906 552.710938 359.765625 587.730469 363.042969 Z M 587.730469 363.042969 " fill-opacity="1" fill-rule="nonzero"/><path fill="#ffffff" d="M 567.882812 394.746094 C 621.859375 389.75 658.339844 399.414062 653.382812 464.582031 C 652.984375 469.652344 657.207031 469.738281 657.769531 466.675781 C 667.550781 413.257812 641.265625 375.503906 567.277344 390.863281 C 566.757812 390.945312 566.292969 391.226562 565.984375 391.648438 C 565.671875 392.070312 565.542969 392.597656 565.625 393.117188 C 565.703125 393.632812 565.984375 394.097656 566.410156 394.410156 C 566.832031 394.71875 567.359375 394.847656 567.878906 394.769531 Z M 567.882812 394.746094 " fill-opacity="1" fill-rule="nonzero"/><path fill="#ffffff" d="M 742.183594 313.953125 C 742.480469 313.59375 742.644531 313.144531 742.644531 312.679688 C 742.648438 312.210938 742.488281 311.761719 742.195312 311.402344 C 741.898438 311.039062 741.488281 310.792969 741.03125 310.699219 C 740.578125 310.609375 740.101562 310.675781 739.691406 310.894531 C 734.65625 313.90625 677.296875 360.410156 674.835938 347.527344 C 670.410156 324.578125 678.863281 253.730469 692.285156 211.382812 C 697.394531 195.285156 711.246094 159.253906 724.492188 193.996094 C 730.210938 209.09375 734.722656 258.683594 736.964844 276.199219 C 737.371094 279.375 742.320312 279.496094 741.996094 276.199219 C 739.78125 252.527344 739.664062 199.308594 724.890625 180.390625 C 705.085938 155.066406 689.34375 196.976562 685.726562 211.222656 C 678.4375 239.964844 662.058594 321.480469 669.625 350.210938 C 674.890625 370.433594 730.921875 327.976562 742.183594 313.953125 Z M 742.183594 313.953125 " fill-opacity="1" fill-rule="nonzero"/><path fill="#ffffff" d="M 773.0625 396.351562 C 769.035156 400.738281 758.621094 429.160156 729.140625 481.488281 C 727.769531 483.945312 731.835938 486.121094 733.441406 483.867188 C 740.660156 473.601562 776.550781 410.523438 777.363281 398.042969 C 777.410156 397.523438 777.289062 397.003906 777.015625 396.558594 C 776.742188 396.117188 776.332031 395.773438 775.847656 395.582031 C 775.363281 395.390625 774.828125 395.363281 774.328125 395.503906 C 773.824219 395.640625 773.378906 395.941406 773.0625 396.351562 Z M 773.0625 396.351562 " fill-opacity="1" fill-rule="nonzero"/><path fill="#ffffff" d="M 778.574219 309.324219 C 780.113281 311.011719 783.722656 308.597656 782.84375 306.0625 C 780.703125 299.945312 764.792969 293.542969 762.195312 298.578125 C 760.867188 301.152344 770.558594 300.589844 778.574219 309.324219 Z M 778.574219 309.324219 " fill-opacity="1" fill-rule="nonzero"/><path fill="#ffffff" d="M 744.804688 379.890625 C 808.851562 373 871.972656 361.53125 897.765625 332.027344 C 922.203125 303.851562 889.722656 297.972656 871.40625 304.351562 C 870.855469 304.601562 870.414062 305.035156 870.152344 305.578125 C 869.894531 306.121094 869.832031 306.738281 869.984375 307.324219 C 870.125 307.90625 870.476562 308.421875 870.964844 308.773438 C 871.453125 309.128906 872.042969 309.300781 872.652344 309.257812 C 883.523438 307.894531 908.148438 303.988281 896.800781 322.949219 C 873.457031 362.4375 787.554688 366.21875 746.855469 373.625 C 756.777344 356.652344 767.890625 340.402344 780.109375 325 C 795.320312 322.140625 810.582031 319.363281 825.753906 316.382812 C 828.890625 315.738281 835.816406 307.929688 801.605469 314.691406 C 790.171875 316.949219 779.785156 316.382812 772.011719 325.238281 C 760.542969 338.1875 730.851562 381.386719 744.804688 379.890625 Z M 744.804688 379.890625 " fill-opacity="1" fill-rule="nonzero"/><path fill="#ffffff" d="M 1076.699219 449.851562 C 988.136719 440.371094 807.394531 473.679688 715.578125 494.128906 C 691.277344 498.238281 668.910156 509.949219 651.691406 527.582031 C 618.882812 557.890625 581.898438 606.800781 566.253906 639.445312 C 547.246094 679.101562 577.6875 680.21875 605.460938 677.046875 C 738.296875 661.949219 914.046875 626.324219 1037.460938 577.769531 C 1074.207031 563.328125 1126.023438 537.996094 1130.050781 492.511719 C 1132.855469 459.550781 1103.1875 452.691406 1076.699219 449.851562 Z M 1124.59375 492.515625 C 1118.246094 536.398438 1059.347656 562.160156 1030.320312 573.386719 C 904.253906 622.125 738.203125 656.273438 605.800781 670 C 577.625 672.9375 556.464844 674.46875 575.214844 639.285156 C 597.332031 598.074219 626.28125 560.917969 660.832031 529.394531 C 682.328125 509.785156 684.984375 509.269531 715.296875 501.714844 C 803.851562 479.777344 986.9375 448.824219 1072.90625 456.789062 C 1097.828125 459.148438 1128.867188 463.011719 1124.59375 492.515625 Z M 1124.59375 492.515625 " fill-opacity="1" fill-rule="nonzero"/><path fill="#ffffff" d="M 231.722656 534.949219 C 211.03125 533.984375 165.742188 536.316406 143.925781 538.167969 C 9.5625 549.5625 2.273438 638.761719 81.695312 662.234375 C 114.375 670.898438 147.667969 677.046875 181.285156 680.625 C 185.910156 681.152344 186.921875 673.101562 182.253906 672.578125 C 154.070312 668.792969 125.894531 664.121094 97.957031 657.726562 C 20.34375 639.929688 26.066406 590.132812 75.054688 563.769531 C 118.730469 540.261719 183.738281 547.386719 232.53125 539.617188 C 235.34375 539.257812 234.46875 535.074219 231.722656 534.949219 Z M 231.722656 534.949219 " fill-opacity="1" fill-rule="nonzero"/><path fill="#ffffff" d="M 349.625 533.375 C 356.429688 510.230469 352.40625 497.390625 371.519531 455.363281 C 376.335938 444.902344 395.679688 443.613281 406.382812 443.046875 C 448.007812 440.832031 489.511719 438.335938 507.261719 446.550781 C 521.308594 453.03125 536.40625 530.5625 544.980469 551.972656 C 546.183594 555.039062 550.996094 554.984375 550.996094 551.210938 C 550.996094 530.878906 531.742188 477.464844 522.8125 457.578125 C 516.132812 442.6875 511.585938 436.566406 496.808594 434.273438 C 473.222656 430.664062 438.164062 431.867188 407.644531 434.507812 C 375.445312 437.253906 367.394531 444.015625 362.886719 454.636719 C 353.386719 476.621094 342.761719 519.015625 343.84375 532.8125 C 343.988281 533.4375 344.324219 534.003906 344.804688 534.429688 C 345.289062 534.851562 345.890625 535.113281 346.53125 535.175781 C 347.171875 535.238281 347.8125 535.097656 348.371094 534.777344 C 348.925781 534.453125 349.363281 533.964844 349.625 533.375 Z M 349.625 533.375 " fill-opacity="1" fill-rule="nonzero"/><path fill="#ffffff" d="M 526.542969 577.335938 C 540.671875 576.132812 560.921875 569.285156 568.367188 556.164062 C 569.738281 553.828125 567.199219 550.242188 564.542969 552.136719 C 550.496094 561.277344 545.460938 568.035156 526.300781 569.6875 C 494.101562 572.503906 479.605469 547.347656 444.101562 537.488281 C 417.453125 529.996094 370.882812 534.382812 346.40625 546.097656 C 321.285156 558.171875 278.386719 618.109375 275.277344 645.832031 C 274.992188 648.363281 279.300781 649.53125 279.785156 647.28125 C 285.136719 625.019531 332.476562 560.367188 350.3125 551.675781 C 360.894531 546.523438 410.089844 535.933594 441.765625 544.632812 C 472.523438 552.738281 491.722656 580.332031 526.542969 577.335938 Z M 526.542969 577.335938 " fill-opacity="1" fill-rule="nonzero"/><path fill="#ffffff" d="M 594.414062 687.074219 C 581.84375 697.210938 570.828125 709.144531 561.726562 722.492188 C 560.644531 724.464844 563.457031 726.886719 565.105469 725.351562 C 576.582031 714.398438 587.972656 703.40625 599.160156 692.214844 C 602.09375 689.484375 597.675781 684.972656 594.414062 687.074219 Z M 594.414062 687.074219 " fill-opacity="1" fill-rule="nonzero"/><path fill="#ffffff" d="M 528.597656 752.558594 C 476.902344 796.910156 442.4375 792.996094 423.132812 796.835938 C 419.59375 797.605469 415.082031 807.867188 453.5625 799.738281 C 483.738281 793.890625 511.496094 779.207031 533.3125 757.550781 C 533.914062 756.914062 534.253906 756.066406 534.253906 755.1875 C 534.257812 754.308594 533.921875 753.460938 533.316406 752.824219 C 532.714844 752.183594 531.886719 751.800781 531.011719 751.753906 C 530.132812 751.703125 529.269531 751.992188 528.597656 752.558594 Z M 528.597656 752.558594 " fill-opacity="1" fill-rule="nonzero"/><path fill="#38a1ff" d="M 1169.640625 170.324219 C 1165.054688 178.375 1156.875 207.628906 1153.535156 218.226562 C 1090.742188 417.980469 1096.375 403.914062 1092.636719 419.660156 C 1092.066406 421.996094 1095.773438 423.683594 1096.660156 421.144531 C 1100.839844 410.316406 1096 426.277344 1166.453125 198.863281 C 1169.871094 189.933594 1172.292969 180.648438 1173.675781 171.1875 C 1173.90625 168.953125 1170.765625 168.699219 1169.640625 170.324219 Z M 1169.640625 170.324219 " fill-opacity="1" fill-rule="nonzero"/><path fill="#38a1ff" d="M 131.933594 505.640625 C 159.847656 472.503906 164.773438 455.785156 273.929688 336.007812 C 284.878906 323.933594 302.105469 304.410156 308.222656 289.636719 C 309.273438 287.019531 305.488281 285.613281 303.957031 287.664062 C 280.734375 317.855469 260.6875 340.117188 235.085938 368.65625 C 208.011719 398.804688 149.382812 468.367188 127.847656 503.0625 C 126.164062 505.921875 129.996094 507.9375 131.933594 505.640625 Z M 131.933594 505.640625 " fill-opacity="1" fill-rule="nonzero"/><path fill="#38a1ff" d="M 1065.179688 314.398438 C 1061.082031 321.515625 1050.65625 356.058594 1047.136719 366.746094 C 1041.175781 384.457031 1034.21875 402.007812 1029.296875 420.039062 C 1029.105469 420.628906 1029.144531 421.269531 1029.417969 421.824219 C 1029.695312 422.378906 1030.183594 422.804688 1030.765625 423 C 1031.359375 423.199219 1031.996094 423.15625 1032.546875 422.878906 C 1033.109375 422.605469 1033.53125 422.121094 1033.730469 421.53125 C 1042.5 402.652344 1054.621094 365.175781 1061.90625 342.914062 C 1065.371094 334.242188 1067.910156 325.230469 1069.476562 316.023438 C 1069.566406 315.488281 1069.46875 314.9375 1069.207031 314.464844 C 1068.933594 313.992188 1068.511719 313.628906 1068 313.433594 C 1067.496094 313.242188 1066.9375 313.234375 1066.417969 313.410156 C 1065.90625 313.585938 1065.46875 313.933594 1065.179688 314.398438 Z M 1065.179688 314.398438 " fill-opacity="1" fill-rule="nonzero"/><path fill="#38a1ff" d="M 218.960938 481.128906 C 217.355469 483.347656 220.414062 486.078125 222.222656 483.90625 C 244.246094 457.820312 266.097656 431.5625 288.195312 405.535156 C 295.566406 396.875 303.660156 388.746094 310.21875 379.445312 C 311.507812 377.675781 309.375 374.699219 307.4375 376.386719 C 288.078125 393.210938 233.023438 461.683594 218.960938 481.128906 Z M 218.960938 481.128906 " fill-opacity="1" fill-rule="nonzero"/><path fill="#38a1ff" d="M 855.660156 73.921875 C 864.78125 68.183594 874.304688 63.113281 884.160156 58.746094 C 892.15625 74.769531 895.808594 92.613281 894.746094 110.492188 C 894.746094 120.839844 897.40625 122.289062 899.9375 112.464844 C 907.992188 80.949219 904.242188 44.515625 895.066406 12.839844 C 891.359375 0.078125 889.832031 1.242188 889.554688 6.273438 C 887.828125 37.273438 860.007812 49.992188 851.992188 72.734375 C 851.273438 74.523438 852.984375 75.664062 855.660156 73.921875 Z M 855.660156 73.921875 " fill-opacity="1" fill-rule="nonzero"/><path fill="#38a1ff" d="M 748.222656 229.902344 C 767.871094 229.945312 775.441406 208.449219 785.824219 195.007812 C 781.800781 206.839844 790.210938 225.960938 783.890625 240.65625 C 780.308594 248.988281 790.085938 250.515625 797.011719 208.453125 C 801.726562 179.574219 850.109375 168.203125 868.503906 137.082031 C 880.824219 116.109375 878.449219 85.433594 875.464844 96.308594 C 858.839844 156.667969 787.410156 148.914062 766.21875 192.105469 C 759.773438 205.230469 765.855469 218.1875 746.734375 225.675781 C 745.730469 225.957031 738.925781 229.878906 748.222656 229.902344 Z M 748.222656 229.902344 " fill-opacity="1" fill-rule="nonzero"/><path fill="#38a1ff" d="M 1028.234375 130.476562 C 1027.179688 127.011719 1024.886719 120.695312 1022.476562 132.367188 C 1015.667969 164.933594 975.457031 176.644531 966.121094 189.765625 C 961.207031 196.613281 962.460938 198.863281 969.5 193.792969 C 982.214844 184.976562 996.308594 185.421875 1007.097656 178.015625 C 1011.15625 193.109375 1011.507812 208.964844 1008.105469 224.222656 C 1006.332031 232.273438 1008.425781 234.453125 1013.457031 227.972656 C 1032.285156 203.738281 1037.101562 159.75 1028.234375 130.476562 Z M 1028.234375 130.476562 " fill-opacity="1" fill-rule="nonzero"/><path fill="#38a1ff" d="M 979.890625 211.222656 C 950.558594 259.097656 842.015625 260.699219 829.570312 332.832031 C 829.25 334.566406 830.539062 337.261719 833.039062 334 C 836.648438 329.332031 857.1875 284.367188 929.644531 274.179688 C 915.8125 296.882812 916.441406 314.433594 907.589844 336.574219 C 878.035156 410.160156 831.105469 421.515625 779.863281 426.988281 C 777.769531 426.988281 777.929688 433.066406 781.269531 433.425781 C 896.925781 445.863281 928.71875 369.046875 942.285156 307.472656 C 950.664062 269.632812 990.867188 261.34375 985.082031 210.863281 C 984.714844 207.210938 983.710938 204.988281 979.890625 211.222656 Z M 979.890625 211.222656 " fill-opacity="1" fill-rule="nonzero"/><path fill="#38a1ff" d="M 898.574219 183.652344 C 886.496094 205.144531 886.496094 231.3125 891.28125 255.421875 C 892.125 259.445312 895.753906 256.914062 895.59375 248.863281 C 894.824219 205.710938 923.765625 189.085938 951.5 165.332031 C 986.5625 135.183594 1022.316406 64.980469 988.09375 23.9375 C 985.644531 21.484375 983.511719 21.886719 984.070312 24.582031 C 996.148438 91.601562 946.875 119.785156 898.628906 150.132812 C 814.394531 203.269531 864.457031 231.691406 787.171875 261.601562 C 761.535156 271.589844 728.742188 281.75 721.222656 312.019531 C 721.046875 312.597656 721.105469 313.222656 721.386719 313.753906 C 721.671875 314.285156 722.15625 314.683594 722.730469 314.859375 C 723.308594 315.039062 723.933594 314.976562 724.464844 314.695312 C 724.996094 314.410156 725.394531 313.925781 725.570312 313.351562 C 732.9375 292.375 791.023438 279.132812 809.664062 271.890625 C 870.152344 248.296875 859.121094 215.03125 898.574219 183.652344 Z M 898.574219 183.652344 " fill-opacity="1" fill-rule="nonzero"/><path fill="#38a1ff" d="M 464.871094 346.675781 C 461.730469 335.046875 480.207031 322.527344 498.246094 313.953125 C 516.285156 305.378906 521.429688 305.617188 526.882812 305.882812 C 518.503906 287.328125 503.296875 268.164062 461.148438 284.503906 C 419 300.847656 429.144531 334.445312 431.761719 345.875 C 442.578125 348.765625 453.929688 349.039062 464.871094 346.675781 Z M 464.871094 346.675781 " fill-opacity="1" fill-rule="nonzero"/><path fill="#38a1ff" d="M 434.6875 366.726562 C 430.171875 388.300781 438.988281 401.019531 458.269531 402.546875 C 461.476562 402.882812 464.71875 402.570312 467.800781 401.628906 C 470.882812 400.691406 473.746094 399.144531 476.222656 397.082031 C 478.699219 395.019531 480.738281 392.480469 482.21875 389.617188 C 483.699219 386.757812 484.589844 383.625 484.839844 380.414062 C 478.960938 377.46875 474.386719 372.449219 471.996094 366.320312 C 459.820312 369.8125 446.933594 369.953125 434.6875 366.726562 Z M 434.6875 366.726562 " fill-opacity="1" fill-rule="nonzero"/><path fill="#38a1ff" d="M 422.1875 937.324219 C 388.613281 964.722656 326.347656 970.867188 285.96875 954.433594 C 283.597656 953.46875 280.65625 956.65625 283.109375 958.460938 C 316.605469 983.015625 395.625 968.890625 426.339844 943.769531 C 430.09375 940.65625 426.015625 934.214844 422.1875 937.324219 Z M 422.1875 937.324219 " fill-opacity="1" fill-rule="nonzero"/><path fill="#38a1ff" d="M 491.480469 663.882812 C 508.15625 695.078125 507.585938 704.863281 515.875 737.285156 C 516.019531 738.179688 516.515625 738.988281 517.25 739.523438 C 517.984375 740.050781 518.902344 740.273438 519.800781 740.128906 C 520.695312 739.984375 521.5 739.492188 522.03125 738.753906 C 522.5625 738.019531 522.78125 737.101562 522.640625 736.199219 C 521.710938 714.023438 511.242188 677.671875 496.671875 660.765625 C 494.5 658.207031 489.78125 660.703125 491.480469 663.882812 Z M 491.480469 663.882812 " fill-opacity="1" fill-rule="nonzero"/><path fill="#38a1ff" d="M 513.5 639.128906 C 556.289062 706.769531 549.734375 759.523438 544.1875 791.8125 C 543.703125 794.625 549.703125 795.839844 550.386719 792.976562 C 564.515625 733.15625 552.601562 676.6875 517.65625 636.230469 C 515.875 634.058594 512.011719 636.804688 513.5 639.128906 Z M 513.5 639.128906 " fill-opacity="1" fill-rule="nonzero"/><path fill="#38a1ff" d="M 185.789062 820.671875 C 188.128906 822.390625 190.421875 819.257812 188.972656 817.125 C 177.421875 800.464844 169.242188 785.695312 170.132812 764.78125 C 170.132812 760.035156 162.96875 759.363281 162.765625 764.148438 C 161.800781 784.160156 168.882812 808.25 185.789062 820.671875 Z M 185.789062 820.671875 " fill-opacity="1" fill-rule="nonzero"/><path fill="#38a1ff" d="M 407.191406 917.121094 C 409.976562 914.550781 405.699219 909.546875 402.722656 912.007812 C 376.921875 933.304688 361.421875 930.285156 332.363281 928.59375 C 331.894531 928.617188 331.445312 928.800781 331.089844 929.105469 C 330.734375 929.40625 330.492188 929.824219 330.394531 930.277344 C 330.296875 930.742188 330.355469 931.21875 330.558594 931.644531 C 330.757812 932.058594 331.09375 932.410156 331.511719 932.617188 C 351.921875 944.265625 388.78125 934.097656 407.191406 917.121094 Z M 407.191406 917.121094 " fill-opacity="1" fill-rule="nonzero"/><path fill="#38a1ff" d="M 473.851562 855.414062 C 466.492188 849.726562 458.917969 844.667969 452.601562 839.957031 C 425.523438 819.828125 398.449219 799.695312 371.375 779.789062 C 376.226562 776.449219 380.847656 772.800781 385.210938 768.847656 C 392.015625 757.046875 386.660156 737.484375 379.195312 725.574219 C 412.167969 704.191406 476.289062 659.386719 496.574219 624.933594 C 516.863281 590.484375 481.804688 564.269531 450.6875 586.890625 C 422.507812 607.222656 379.195312 673.441406 361.035156 703.617188 C 349.242188 696.132812 325.410156 693.113281 315.1875 699.589844 C 312.542969 701.792969 310.304688 704.4375 308.570312 707.410156 C 280.386719 676.214844 251.765625 641.800781 222.34375 612.214844 C 181.003906 570.699219 124.402344 604.683594 186.4375 663.574219 C 201.476562 677.871094 255.308594 719.933594 293.792969 736.839844 C 288.335938 749.554688 284.953125 763.0625 283.769531 776.84375 C 256.238281 795.375 215.582031 831.152344 189.214844 854.863281 C 141.472656 897.8125 199.277344 943.738281 241.300781 894.1875 C 263.203125 868.347656 285.949219 831.433594 305.429688 803.058594 C 319.070312 803.355469 332.589844 800.414062 344.875 794.480469 C 368.019531 832.3125 393.566406 868.609375 421.359375 903.167969 C 479.769531 975.648438 537.710938 904.789062 473.851562 855.414062 Z M 234.015625 889.425781 C 199.027344 928.710938 155.523438 895.441406 194.972656 859.941406 C 223.152344 834.378906 256.800781 811.152344 284.179688 785.160156 C 284.472656 788.808594 285.851562 792.300781 288.140625 795.167969 C 290.429688 798.035156 293.519531 800.152344 297.019531 801.253906 C 278.058594 827.957031 255.0625 865.789062 234.015625 889.425781 Z M 295.386719 733.125 C 292.890625 730.304688 236.421875 700.230469 191.855469 657.605469 C 136.585938 604.832031 183.601562 579.832031 219.066406 617.75 C 248.089844 648.828125 276.351562 682.128906 304.691406 714.015625 C 301.253906 720.214844 298.152344 726.589844 295.40625 733.125 Z M 356.691406 719.917969 C 379.316406 688.398438 425.128906 612.277344 455.035156 592.109375 C 479.632812 575.441406 505.792969 593.035156 489.496094 620.289062 C 469.609375 653.582031 398.675781 704.144531 362.414062 729.65625 C 357.636719 729.65625 355.945312 725.671875 356.710938 719.917969 Z M 352.183594 790.917969 C 356.824219 788.585938 361.351562 786.042969 365.753906 783.304688 C 376.980469 792.523438 440.621094 839.566406 468.5625 861.804688 C 520.648438 903.382812 478.867188 959.617188 428.671875 897.183594 C 428.6875 895.707031 396.222656 859.421875 352.203125 790.925781 Z M 352.183594 790.917969 " fill-opacity="1" fill-rule="nonzero"/><path fill="#38a1ff" d="M 143.808594 709.816406 C 143.941406 709.054688 143.808594 708.273438 143.429688 707.601562 C 143.046875 706.929688 142.441406 706.410156 141.722656 706.140625 C 141 705.867188 140.207031 705.859375 139.476562 706.109375 C 138.746094 706.363281 138.128906 706.859375 137.730469 707.523438 C 115.511719 751.023438 129.679688 816.855469 162.328125 852.671875 C 164.257812 854.765625 167.964844 851.746094 166.351562 849.414062 C 132.296875 804.671875 129.921875 761.496094 143.808594 709.816406 Z M 143.808594 709.816406 " fill-opacity="1" fill-rule="nonzero"/><path fill="#38a1ff" d="M 275.195312 567.234375 C 259.921875 571.269531 238.039062 580.230469 230.917969 595.410156 C 229.671875 598.023438 233.730469 600.601562 235.664062 598.546875 C 250.800781 582.445312 256.800781 582.082031 277.613281 573.875 C 281.234375 572.46875 279.039062 566.21875 275.195312 567.234375 Z M 275.195312 567.234375 " fill-opacity="1" fill-rule="nonzero"/><path fill="#38a1ff" d="M 295.765625 532.253906 C 268.472656 533.785156 227.054688 550.6875 206.714844 575.84375 C 205.027344 577.9375 208.003906 580.65625 209.726562 579.027344 C 230.417969 560.066406 254.53125 541.632812 296.515625 539.214844 C 300.957031 538.929688 300.15625 532.007812 295.765625 532.253906 Z M 295.765625 532.253906 " fill-opacity="1" fill-rule="nonzero"/></svg>